<?xml version="1.0" encoding="UTF-8"?>
<svg width="360px" height="360px" viewBox="0 0 360 360" version="1.1" xmlns="http://www.w3.org/2000/svg" xmlns:xlink="http://www.w3.org/1999/xlink">
    <!-- Generator: Sketch 43.1 (39012) - http://www.bohemiancoding.com/sketch -->
    <title>Artboard</title>
    <desc>Created with Sketch.</desc>
    <defs></defs>
    <g id="Page-1" stroke="none" stroke-width="1" fill="none" fill-rule="evenodd">
        <g id="Artboard" fill="#222222">
            <path d="M216.950417,94 L180,30 L143.049583,94 L147.57735,94 L180,37.8423234 L212.42265,94 L216.950417,94 Z M255.632885,161 L294.315353,228 L216.950417,228 L219.214301,224.078838 L287.523702,224.078838 L253.369002,164.921162 L255.632885,161 Z M143.049583,228 L65.6846467,228 L104.367115,161 L106.630998,164.921162 L72.4762979,224.078838 L140.785699,224.078838 L143.049583,228 Z M159.137367,255.864859 C147.658662,262.895382 140,275.553303 140,290 C140,312.09139 157.90861,330 180,330 C202.09139,330 220,312.09139 220,290 C220,275.553303 212.341338,262.895382 200.862633,255.864859 L180,292 L159.137367,255.864859 Z M272.864407,131.154129 C278.058305,133.620195 283.868017,135 290,135 C312.09139,135 330,117.09139 330,95 C330,72.90861 312.09139,55 290,55 C268.242917,55 250.542977,72.3706923 250.012256,94 L294.315353,94 L272.864407,131.154129 Z M109.987744,94 C109.457023,72.3706923 91.7570829,55 70,55 C47.90861,55 30,72.90861 30,95 C30,117.09139 47.90861,135 70,135 C76.1319828,135 81.941695,133.620195 87.1355931,131.154129 L65.6846467,94 L109.987744,94 Z" id="Combined-Shape"></path>
        </g>
    </g>
</svg>